HIERARCHY
ROOT Hips
{
	OFFSET 0.00000 0.00000 0.00000
	CHANNELS 6 Xposition Yposition Zposition Yrotation Zrotation Xrotation 
	JOINT Lumbar
	{
		OFFSET 0 0 0
		CHANNELS 3 Zrotation Xrotation Yrotation
		JOINT Neck
		{
			OFFSET 0.00 0.2701 0.00
			CHANNELS 3 Zrotation Xrotation Yrotation
			End Site
			{
				OFFSET 0.00 0.1379 0.00
			}
		}
		JOINT RightShoulder
		{
			OFFSET 0.0119 0.2289 0.1181
			CHANNELS 3 Zrotation Xrotation Yrotation
			JOINT RightElbow
			{
				OFFSET 0.00 -0.1475 0.00
				CHANNELS 2 Zrotation Yrotation
				JOINT RightWrist
				{
					OFFSET 0.00 -0.1605 0.00
					CHANNELS 2 Zrotation Xrotation
					End Site
					{
						OFFSET 0.0040 -0.1068 0.0006
					}
				}
			}
		}
		JOINT LeftShoulder
		{
			OFFSET 0.0119 0.2289 -0.1181
			CHANNELS 3 Zrotation Xrotation Yrotation
			JOINT LeftElbow
			{
				OFFSET 0.00 -0.1475 0.00
				CHANNELS 2 Zrotation Yrotation
				JOINT LeftWrist
				{
					OFFSET 0.00 -0.1605 0.00
					CHANNELS 2 Zrotation Xrotation
					End Site
					{
						OFFSET 0.0040 -0.1068 -0.0006
					}
				}
			}
		}
	}
	JOINT RightHip
	{
		OFFSET 0.0316 -0.0424 0.0458
		CHANNELS 3 Zrotation Xrotation Yrotation
		JOINT RightKnee
		{
			OFFSET 0.00 -0.2438 0.00
			CHANNELS 1 Zrotation
			JOINT RightAnkle
			{
				OFFSET 0.00 -0.2449 0.00
				CHANNELS 3 Zrotation Xrotation Yrotation
				End Site
				{
					OFFSET 0.1237 -0.0542 0.0051
				}
			}
		}
	}
	JOINT LeftHip
	{
		OFFSET 0.0316 -0.0424 -0.0458
		CHANNELS 3 Zrotation Xrotation Yrotation
		JOINT LeftKnee
		{
			OFFSET 0.00 -0.2438 0.00
			CHANNELS 1 Zrotation
			JOINT LeftAnkle
			{
				OFFSET 0.00 -0.2449 0.00
				CHANNELS 3 Zrotation Xrotation Yrotation
				End Site
				{
					OFFSET 0.1237 -0.0542 -0.0051
				}
			}
		}
	}
}
MOTION
Frames: 27
Frame Time: 0.02
0.00068 0.00067 0.00101 120.60814 -36.23208 -14.07686 41.97356 2.60404 -0.82666 -15.8145 1.20054 -0.41041 -7.65055 -7.16356 -13.97541 29.88628 89.53929 5.13396 0.13821 -38.06126 0.2668 34.22724 33.30005 -155.76298 31.973 -8.81326 36.66478 -2.39602 1.39543 -20.44759 -6.73697 -3.86164 -2.94909 37.69917 1.52391 1.42438 -24.8058 -7.41561 4.77016 3.24775
0.00028 0.0005 0.00017 121.82451 -36.31217 -13.79259 42.02399 2.41282 -1.74229 -15.60902 0.91213 -0.41143 -8.54228 -7.33652 -13.45201 29.73497 90.09885 5.33025 0.2484 -36.77359 1.78447 28.7464 33.15235 -151.4303 30.52648 -8.15113 36.29776 -2.51316 0.90212 -20.47481 -6.72632 -3.92498 -2.95515 37.56006 1.54085 1.61304 -24.78896 -7.35859 4.67783 3.18835
-0.00013 0.00032 -0.00067 123.03851 -36.39209 -13.50885 42.07453 2.22191 -2.65555 -15.40418 0.62429 -0.41245 -9.4331 -7.50878 -12.93009 29.58419 90.65718 5.52605 0.35834 -35.48854 3.29913 23.28187 33.00774 -147.10928 29.08306 -7.49102 35.9314 -2.62977 0.41021 -20.50195 -6.7157 -3.98822 -2.96124 37.42119 1.55795 1.80132 -24.77213 -7.30172 4.58563 3.12904
-0.00053 0.00015 -0.00151 124.25139 -36.47195 -13.2254 42.12484 2.03122 -3.56845 -15.19932 0.33672 -0.41346 -10.32239 -7.68121 -12.40818 29.43334 91.21476 5.72165 0.46816 -34.20463 4.81242 17.81777 32.86104 -142.7896 27.64072 -6.83091 35.56544 -2.74652 -0.08158 -20.5291 -6.70508 -4.05138 -2.96729 37.28248 1.57489 1.98945 -24.75534 -7.24487 4.49355 3.0698
-0.00094 -2e-05 -0.00235 125.46605 -36.55192 -12.94154 42.17497 1.84033 -4.4835 -14.99383 0.04868 -0.41448 -11.21187 -7.85433 -11.88515 29.28196 91.77428 5.91798 0.57832 -32.91856 6.32803 12.33772 32.70996 -138.45913 26.19594 -6.16879 35.19897 -2.86386 -0.57478 -20.55632 -6.69441 -4.1146 -2.97329 37.14359 1.59157 2.17783 -24.73856 -7.1879 4.40142 3.0105
-0.00134 -0.00019 -0.0032 126.67852 -36.63174 -12.65808 42.22639 1.64939 -5.39293 -14.79039 -0.23874 -0.4155 -12.10545 -8.02472 -11.36574 29.13246 92.33059 6.11279 0.68786 -31.6357 7.84055 6.90623 32.57875 -134.15834 24.75556 -5.51296 34.83285 -2.97893 -1.06396 -20.58329 -6.68392 -4.17784 -2.97957 37.00476 1.60954 2.36585 -24.72161 -7.13123 4.30907 2.9512
-0.00175 -0.00037 -0.00403 127.89425 -36.71182 -12.37413 42.27509 1.45873 -6.31274 -14.583 -0.52704 -0.41652 -12.98984 -8.2006 -10.83889 28.97931 92.89034 6.30971 0.7982 -30.34795 9.35776 1.38294 32.40861 -129.80223 23.30758 -4.84521 34.4665 -3.09842 -1.56053 -20.61075 -6.67309 -4.24101 -2.98529 36.86603 1.62495 2.55453 -24.70503 -7.07401 4.21722 2.89195
-0.00215 -0.00054 -0.00487 129.10664 -36.79157 -12.09065 42.32639 1.26789 -7.22283 -14.37932 -0.81462 -0.41753 -13.88263 -8.37107 -10.32022 28.82958 93.45129 6.50605 0.90839 -29.06444 10.87036 -4.05555 32.27273 -125.49772 21.8672 -4.18841 34.10026 -3.21389 -2.0506 -20.63772 -6.66254 -4.30419 -2.99149 36.72708 1.64265 2.74234 -24.68812 -7.01731 4.12499 2.83268
-0.00254 -0.00071 -0.00573 130.31701 -36.87132 -11.80751 42.38059 1.07639 -8.12209 -14.17983 -1.10111 -0.41855 -14.78669 -8.53635 -9.80604 28.68376 93.99671 6.69636 1.01612 -27.78641 12.37941 -9.39337 32.18562 -121.25186 20.43292 -3.54489 33.73429 -3.32425 -2.53171 -20.66425 -6.65247 -4.36762 -2.99844 36.58826 1.66346 2.93025 -24.67074 -6.96116 4.03193 2.77321
-0.00298 -0.00089 -0.0065 131.54526 -36.95228 -11.52168 42.41725 0.88733 -9.08688 -13.9552 -1.39325 -0.41957 -15.62895 -8.73579 -9.24948 28.51461 94.5804 6.90535 1.13118 -26.47767 13.91521 -15.31956 31.83866 -116.6551 18.95389 -2.82461 33.36717 -3.46341 -3.06132 -20.69382 -6.64006 -4.43036 -3.00156 36.44987 1.66731 3.12108 -24.65585 -6.9016 3.94253 2.71436
-0.00332 -0.00104 -0.00746 132.73157 -37.02991 -11.24204 42.49142 0.69404 -9.91121 -13.78429 -1.67384 -0.42058 -16.59942 -8.86042 -8.79297 28.39524 95.11586 7.08515 1.23514 -25.23345 15.39026 -19.99809 32.02639 -112.80775 17.5757 -2.26656 33.0023 -3.54222 -3.4905 -20.71665 -6.6323 -4.49402 -3.01246 36.30985 1.70631 3.30349 -24.63588 -6.84939 3.84614 2.65458
-0.00333 -0.00108 -0.00891 133.83594 -37.10442 -10.97539 42.66559 0.48142 -10.36479 -13.75682 -1.91946 -0.42155 -17.94255 -8.80087 -8.52462 28.40835 95.24096 7.09713 1.27105 -24.17158 16.73289 -21.27146 33.8082 -110.96218 16.42425 -2.15582 32.64493 -3.44992 -3.62537 -20.72352 -6.63989 -4.56466 -3.04747 36.17109 1.84821 3.48156 -24.60052 -6.81617 3.72442 2.58913
-0.00322 -0.00108 -0.01056 134.89138 -37.17432 -10.71589 42.87788 0.26599 -10.67466 -13.78409 -2.15404 -0.4225 -19.4096 -8.66278 -8.37157 28.47166 95.36193 7.09386 1.3018 -23.17502 18.00794 -21.28788 36.10342 -109.88017 15.38393 -2.20763 32.28956 -3.29782 -3.66242 -20.72318 -6.65172 -4.6354 -3.0898 36.02954 2.02436 3.64788 -24.56053 -6.79052 3.59687 2.52335
-0.00318 -0.0011 -0.01214 135.94844 -37.24256 -10.45551 43.07475 0.05687 -11.04061 -13.78879 -2.39588 -0.42346 -20.80763 -8.54623 -8.22368 28.51534 95.67559 7.15767 1.36076 -22.14313 19.29185 -21.86834 38.08092 -108.48314 14.32455 -2.18356 31.93239 -3.17691 -3.75705 -20.72447 -6.6599 -4.70316 -3.12698 35.88566 2.18042 3.80707 -24.52334 -6.76217 3.47592 2.4597
-0.0031 -0.0011 -0.01363 137.09522 -37.32718 -10.18438 43.26402 -0.17355 -11.44497 -13.78357 -2.62843 -0.42443 -22.26365 -8.48725 -7.8379 28.54785 95.21353 6.97663 1.31462 -21.1289 20.66888 -22.47959 40.41581 -106.94861 13.13003 -2.16803 31.57896 -3.03977 -3.79797 -20.73261 -6.67523 -4.78325 -3.17183 35.75734 2.35499 4.01811 -24.48238 -6.73075 3.33805 2.38757
-0.00307 -0.00114 -0.01537 138.04005 -37.37592 -9.93826 43.47772 -0.36022 -11.73559 -13.81237 -2.87745 -0.42538 -23.62311 -8.29229 -7.96882 28.61281 96.32877 7.29055 1.48103 -20.10131 21.83467 -22.72503 42.12793 -105.88649 12.24662 -2.17356 31.21825 -2.9212 -3.92519 -20.72488 -6.67683 -4.83774 -3.20248 35.59549 2.49996 4.11934 -24.4492 -6.70749 3.23433 2.33319
-0.00317 -0.00126 -0.01774 138.46925 -37.33351 -9.75176 43.75288 -0.42562 -11.74481 -13.91724 -3.17661 -0.42631 -24.72826 -7.72011 -9.54709 28.77862 102.11435 9.07039 2.2787 -18.95287 22.44475 -22.305 41.99519 -105.90149 12.16841 -2.19521 30.83795 -2.87784 -4.33586 -20.67455 -6.63804 -4.82103 -3.19162 35.34825 2.54811 3.91311 -24.43231 -6.70521 3.22368 2.32633
-0.00332 -0.00142 -0.02037 138.69145 -37.25455 -9.59182 44.0505 -0.44667 -11.64485 -14.05462 -3.49206 -0.42722 -25.72345 -7.01825 -11.6296 28.97126 109.42326 11.32926 3.28164 -17.80154 22.84259 -21.55437 41.21937 -106.37615 12.40545 -2.23341 30.45093 -2.85344 -4.833 -20.60875 -6.58551 -4.77863 -3.16628 35.06799 2.56697 3.59903 -24.42628 -6.71083 3.24794 2.33754
-0.00344 -0.00157 -0.02291 138.98858 -37.18708 -9.42446 44.33585 -0.48811 -11.59683 -14.18088 -3.79915 -0.42814 -26.74158 -6.38888 -13.45257 29.13574 115.83599 13.30851 4.16336 -16.69593 23.33034 -20.93036 40.7354 -106.66253 12.51428 -2.26467 30.0652 -2.81441 -5.2765 -20.55023 -6.54026 -4.74834 -3.14789 34.7962 2.60307 3.3378 -24.4173 -6.71259 3.25814 2.34159
-0.00357 -0.00169 -0.02533 139.36425 -37.13842 -9.23683 44.63192 -0.5294 -11.53478 -14.29631 -4.11114 -0.42906 -27.88013 -5.69741 -15.41864 29.36804 123.13225 15.55601 5.16604 -15.40456 23.84317 -20.35945 40.26431 -106.87509 12.55913 -2.29663 29.68337 -2.79903 -5.77653 -20.48986 -6.49098 -4.71633 -3.12827 34.54428 2.62197 3.05613 -24.39287 -6.71566 3.26112 2.34154
-0.0037 -0.00189 -0.02804 139.52852 -37.04528 -9.09872 44.90967 -0.55948 -11.4769 -14.43791 -4.41537 -0.42999 -28.73765 -5.10816 -17.19136 29.46648 128.92137 17.34954 5.96157 -14.49926 24.25446 -19.61921 39.61545 -107.35746 12.81605 -2.33211 29.29632 -2.73925 -6.1814 -20.43045 -6.44654 -4.68166 -3.10759 34.25276 2.67155 2.79638 -24.41194 -6.71788 3.28673 2.35389
-0.00385 -0.0023 -0.03157 139.15461 -36.81 -9.08161 45.1366 -0.5774 -11.46682 -14.67121 -4.70796 -0.43097 -28.86534 -4.80992 -18.42603 29.17373 130.42915 17.85313 6.17031 -14.65346 24.4351 -18.4686 38.55632 -108.31085 13.52908 -2.34346 28.85791 -2.55574 -6.29662 -20.37147 -6.42087 -4.64726 -3.08841 33.78052 2.79281 2.57965 -24.47735 -6.71535 3.37323 2.39977
-0.00398 -0.0028 -0.03535 138.57699 -36.53666 -9.11512 45.34206 -0.58394 -11.46379 -14.92332 -4.98991 -0.432 -28.70898 -4.62306 -19.42867 28.74766 130.32658 17.86999 6.1578 -15.19624 24.52125 -17.16946 37.35126 -109.5363 14.44961 -2.3611 28.42166 -2.32636 -6.31501 -20.31506 -6.40019 -4.61088 -3.06851 33.28627 2.94902 2.39497 -24.60165 -6.71205 3.48018 2.45692
-0.00409 -0.00328 -0.03896 138.09531 -36.29907 -9.13142 45.55511 -0.59068 -11.45183 -15.14984 -5.26742 -0.43297 -28.67039 -4.40152 -20.45524 28.39255 130.78736 18.05459 6.22217 -15.56695 24.65294 -15.9606 36.26193 -110.75186 15.31434 -2.39642 28.00971 -2.1162 -6.38157 -20.26161 -6.37579 -4.57448 -3.04829 32.85188 3.10298 2.22697 -24.7429 -6.70893 3.57303 2.50634
-0.00436 -0.0037 -0.04281 137.58931 -35.98164 -9.12405 45.7826 -0.61748 -11.45961 -15.45361 -5.58359 -0.43396 -28.67908 -4.11082 -21.83217 27.99562 131.98699 18.47462 6.38984 -15.92297 24.76777 -14.64444 34.9458 -111.54444 16.04513 -2.35161 27.4908 -1.91424 -6.43209 -20.19061 -6.35684 -4.54088 -3.03014 32.19831 3.20057 1.93143 -24.69107 -6.70548 3.68678 2.56696
-0.00427 -0.00425 -0.04621 137.0919 -35.82275 -9.17784 45.96897 -0.59957 -11.43009 -15.59535 -5.81783 -0.43508 -28.51919 -3.9889 -22.43202 27.65252 131.27757 18.29119 6.29189 -16.39633 24.89608 -13.51944 34.07082 -113.22546 17.0781 -2.46757 27.19529 -1.68319 -6.49368 -20.15644 -6.32818 -4.50155 -3.00789 32.00592 3.42149 1.90033 -25.06641 -6.70411 3.76219 2.60721
-0.0032 -0.00512 -0.04826 136.63782 -36.10439 -9.38589 46.09581 -0.46814 -11.28933 -15.32909 -5.81709 -0.43503 -27.99881 -4.33718 -20.81466 27.50156 125.40518 16.48263 5.47244 -17.14653 25.1021 -12.97551 34.49387 -117.73675 19.08464 -3.09031 27.51613 -1.39126 -6.59305 -20.22796 -6.26909 -4.44505 -2.97306 33.01068 3.99738 2.68324 -26.50662 -6.69385 3.71975 2.58381
